<svg width="27" height="36" viewBox="0 0 27 36" fill="none" xmlns="http://www.w3.org/2000/svg">
<path d="M12.7898 18.007C12.4383 16.882 12.4453 14.7094 12.6492 14.7094C13.2398 14.7094 13.1836 17.3039 12.7898 18.007ZM12.6703 21.3258C12.1289 22.7461 11.4539 24.3703 10.6734 25.7344C11.9602 25.2422 13.4156 24.525 15.0961 24.1945C14.2031 23.5195 13.3453 22.5492 12.6703 21.3258ZM6.05391 30.1008C6.05391 30.157 6.98203 29.7211 8.50781 27.2742C8.03672 27.7172 6.46172 28.9969 6.05391 30.1008ZM17.4375 11.25H27V34.3125C27 35.2477 26.2477 36 25.3125 36H1.6875C0.752344 36 0 35.2477 0 34.3125V1.6875C0 0.752344 0.752344 0 1.6875 0H15.75V9.5625C15.75 10.4906 16.5094 11.25 17.4375 11.25ZM16.875 23.3297C15.4688 22.4719 14.5336 21.2906 13.8727 19.5469C14.1891 18.2461 14.6883 16.2703 14.3086 15.0328C13.9781 12.9656 11.3273 13.1695 10.9477 14.5547C10.5961 15.8414 10.9195 17.6555 11.5172 19.9688C10.7016 21.9094 9.49922 24.5109 8.64844 26.0016C8.64141 26.0016 8.64141 26.0086 8.63438 26.0086C6.72891 26.9859 3.45938 29.1375 4.80234 30.7898C5.19609 31.275 5.92734 31.493 6.31406 31.493C7.57266 31.493 8.82422 30.2273 10.6102 27.1477C12.4242 26.55 14.4141 25.8047 16.1648 25.5164C17.6906 26.3461 19.4766 26.8875 20.6648 26.8875C22.718 26.8875 22.8586 24.6375 22.05 23.8359C21.0727 22.8797 18.232 23.1539 16.875 23.3297ZM26.5078 7.38281L19.6172 0.492188C19.3008 0.175781 18.8719 0 18.4219 0H18V9H27V8.57109C27 8.12813 26.8242 7.69922 26.5078 7.38281ZM21.2977 25.3336C21.5859 25.1437 21.1219 24.4969 18.2883 24.7008C20.8969 25.8117 21.2977 25.3336 21.2977 25.3336Z" fill="white"/>
</svg>
