<svg width="36" height="36" viewBox="0 0 36 36" fill="none" xmlns="http://www.w3.org/2000/svg">
<path d="M35.2431 9.30735C35.0346 8.55999 34.6367 7.87908 34.0881 7.33042C33.5394 6.78177 32.8585 6.38393 32.1111 6.17535C29.3061 5.42385 18.0171 5.42385 18.0171 5.42385C18.0171 5.42385 6.75664 5.40885 3.92314 6.17535C3.17578 6.38393 2.49487 6.78177 1.94621 7.33042C1.39756 7.87908 0.999713 8.55999 0.791137 9.30735C0.259417 12.1791 -0.00272269 15.0943 0.00813649 18.0148C-0.000669815 20.9244 0.261462 23.8284 0.791137 26.6893C0.999713 27.4367 1.39756 28.1176 1.94621 28.6663C2.49487 29.2149 3.17578 29.6128 3.92314 29.8214C6.72514 30.5744 18.0171 30.5743 18.0171 30.5743C18.0171 30.5743 29.2761 30.5744 32.1111 29.8214C32.8585 29.6128 33.5394 29.2149 34.0881 28.6663C34.6367 28.1176 35.0346 27.4367 35.2431 26.6893C35.7617 23.8274 36.0128 20.9234 35.9931 18.0148C36.0149 15.0953 35.7638 12.1802 35.2431 9.30735ZM14.4141 23.4013V12.6118L23.8101 18.0148L14.4141 23.4013Z" fill="white"/>
</svg>
